<?xml version="1.0" encoding="UTF-8"?>
<svg width="28px" height="28px" viewBox="0 0 28 28" version="1.1" xmlns="http://www.w3.org/2000/svg" xmlns:xlink="http://www.w3.org/1999/xlink">
    <title>flag/sp</title>
    <g id="flag/sp" stroke="none" stroke-width="1" fill="none" fill-rule="evenodd">
        <g id="spain">
            <path d="M0,14 C0,15.7124844 0.308054687,17.3528906 0.870789062,18.8695391 L14,20.0869375 L27.1292109,18.8695391 C27.6919453,17.3528906 28,15.7124844 28,14 C28,12.2875156 27.6919453,10.6471094 27.1292109,9.13046094 L14,7.9130625 L0.870789062,9.13046094 C0.308054687,10.6471094 0,12.2875156 0,14 Z" id="Path" fill="#FFDA44"></path>
            <g id="Group" transform="translate(0.820312, 0.000000)" fill="#D80027">
                <path d="M26.3088984,9.13046094 C24.3307969,3.79930469 19.1991953,0 13.1796875,0 C7.16017969,0 2.02857812,3.79930469 0.0504765625,9.13046094 L26.3088984,9.13046094 Z" id="Path"></path>
                <path d="M0.0504765625,18.8695391 C2.02857812,24.2006953 7.16017969,28 13.1796875,28 C19.1991953,28 24.3307969,24.2006953 26.3088984,18.8695391 L0.0504765625,18.8695391 Z" id="Path"></path>
            </g>
        </g>
    </g>
</svg>